<svg width="360" height="220" viewBox="0 0 360 220" fill="none" xmlns="http://www.w3.org/2000/svg">
  <g stroke="#2DD4BF" stroke-opacity="0.14" stroke-width="1.2">
    <path d="M20 30L90 18L150 46L220 22L300 38L340 80" />
    <path d="M12 120L80 92L145 108L212 84L286 106L348 96" />
    <path d="M28 196L96 168L168 186L238 162L308 182L352 148" />
    <path d="M90 18L80 92L96 168" />
    <path d="M150 46L145 108L168 186" />
    <path d="M220 22L212 84L238 162" />
    <path d="M300 38L286 106L308 182" />
    <path d="M20 30L80 92L150 46L212 84L300 38" />
    <path d="M12 120L96 168L145 108L238 162L286 106" />
  </g>
  <g fill="#2DD4BF" fill-opacity="0.2">
    <circle cx="20" cy="30" r="2.2" />
    <circle cx="90" cy="18" r="2.2" />
    <circle cx="150" cy="46" r="2.2" />
    <circle cx="220" cy="22" r="2.2" />
    <circle cx="300" cy="38" r="2.2" />
    <circle cx="340" cy="80" r="2.2" />
    <circle cx="12" cy="120" r="2.2" />
    <circle cx="80" cy="92" r="2.2" />
    <circle cx="145" cy="108" r="2.2" />
    <circle cx="212" cy="84" r="2.2" />
    <circle cx="286" cy="106" r="2.2" />
    <circle cx="348" cy="96" r="2.2" />
    <circle cx="28" cy="196" r="2.2" />
    <circle cx="96" cy="168" r="2.2" />
    <circle cx="168" cy="186" r="2.2" />
    <circle cx="238" cy="162" r="2.2" />
    <circle cx="308" cy="182" r="2.2" />
    <circle cx="352" cy="148" r="2.2" />
  </g>
</svg>
